<?xml version="1.0" standalone="no"?>
<!DOCTYPE svg PUBLIC "-//W3C//DTD SVG 20010904//EN"
 "http://www.w3.org/TR/2001/REC-SVG-20010904/DTD/svg10.dtd">
<svg version="1.0" xmlns="http://www.w3.org/2000/svg"
 width="260.000000pt" height="260.000000pt" viewBox="0 0 260.000000 260.000000"
 preserveAspectRatio="xMidYMid meet">
<metadata>
Created by potrace 1.11, written by Peter Selinger 2001-2013
</metadata>
<g transform="translate(0.000000,260.000000) scale(0.100000,-0.100000)"
fill="#000000" stroke="none">
<path d="M0 1300 l0 -1300 1300 0 1300 0 0 1300 0 1300 -1300 0 -1300 0 0
-1300z m302 636 c7 -32 323 -615 329 -608 4 4 39 66 78 139 39 72 96 178 126
235 31 56 72 136 93 176 l36 72 83 0 c46 0 83 -2 83 -5 0 -3 -95 -179 -210
-391 l-210 -386 0 -254 0 -254 -80 0 -80 0 0 247 0 247 -191 355 c-106 196
-203 375 -216 399 l-25 42 90 0 c70 0 91 -3 94 -14z m1523 -513 c188 -288 344
-525 346 -527 2 -2 2 234 0 525 l-3 529 76 0 76 0 0 -645 0 -645 -89 0 -89 0
-298 458 c-163 251 -320 491 -348 533 l-51 76 4 -533 3 -534 -71 0 -71 0 0
645 0 646 87 -3 87 -3 341 -522z"/>
</g>
</svg>
